<svg width="32" height="33" viewBox="0 0 32 33" fill="none" xmlns="http://www.w3.org/2000/svg">
<g id="Icons">
<path id="Union" fill-rule="evenodd" clip-rule="evenodd" d="M20.3333 3H19.3056C19.0294 3 18.8056 3.22386 18.8056 3.5V4.02778C18.8056 4.30392 18.5817 4.52778 18.3056 4.52778H17.2778H15.75H14.2222H13.1944C12.9183 4.52778 12.6944 4.30392 12.6944 4.02778V3.5C12.6944 3.22386 12.4706 3 12.1944 3H11.1667H9.63889H8.61111C8.33497 3 8.11111 3.22386 8.11111 3.5V4.02778C8.11111 4.30392 7.88725 4.52778 7.61111 4.52778H7.08333C6.80719 4.52778 6.58333 4.75164 6.58333 5.02778V5.55556C6.58333 5.8317 6.35948 6.05556 6.08333 6.05556H5.55556C5.27941 6.05556 5.05556 6.27941 5.05556 6.55556V7.58333V9.11111L5.05556 10.1389C5.05556 10.415 4.8317 10.6389 4.55556 10.6389H3.52778H2.5C2.22386 10.6389 2 10.8627 2 11.1389V12.1667V13.6944V15.2222V16.75V18.2778V19.3056C2 19.5817 2.22386 19.8056 2.5 19.8056H3.52778H4.55556C4.8317 19.8056 5.05556 20.0294 5.05556 20.3056V21.3333V22.8611V24.3889V25.9167V27.4444V28.9722V30C5.05556 30.2761 5.27941 30.5 5.55556 30.5H6.58333H8.11111H9.63889H11.1667H12.6944H14.2222H15.75H17.2778H18.8056H20.3333H21.8611H23.3889H24.9167H25.9444C26.2206 30.5 26.4444 30.2761 26.4444 30V28.9722V27.4444V25.9167V24.3889V22.8611V21.3333V20.3056C26.4444 20.0294 26.6683 19.8056 26.9444 19.8056H27.9722H29C29.2761 19.8056 29.5 19.5817 29.5 19.3056V18.2778V16.75V15.2222V13.6944V12.1667V11.1389C29.5 10.8627 29.2761 10.6389 29 10.6389H27.9722H26.9444C26.6683 10.6389 26.4444 10.415 26.4444 10.1389V9.11111V7.58333V6.55556C26.4444 6.27941 26.2206 6.05556 25.9444 6.05556H25.4167C25.1405 6.05556 24.9167 5.8317 24.9167 5.55556V5.02778C24.9167 4.75164 24.6928 4.52778 24.4167 4.52778H23.8889C23.6127 4.52778 23.3889 4.30392 23.3889 4.02778V3.5C23.3889 3.22386 23.165 3 22.8889 3H21.8611H20.3333ZM8.11111 9.11111V8.08333C8.11111 7.80719 8.33497 7.58333 8.61111 7.58333H9.13889C9.41503 7.58333 9.63889 7.35948 9.63889 7.08333V6.55556C9.63889 6.27941 9.86275 6.05556 10.1389 6.05556H11.1667H12.1944C12.4706 6.05556 12.6944 6.27941 12.6944 6.55556V7.08333C12.6944 7.35948 12.9183 7.58333 13.1944 7.58333H13.7222C13.9984 7.58333 14.2222 7.80719 14.2222 8.08333V9.11111V10.1389C14.2222 10.415 13.9984 10.6389 13.7222 10.6389H12.6944H11.1667H9.63889H8.61111C8.33497 10.6389 8.11111 10.415 8.11111 10.1389V9.11111ZM22.8889 7.58333C23.165 7.58333 23.3889 7.80719 23.3889 8.08333V9.11111V10.1389C23.3889 10.415 23.165 10.6389 22.8889 10.6389H21.8611H20.3333H18.8056H17.7778C17.5016 10.6389 17.2778 10.415 17.2778 10.1389V9.11111V8.08333C17.2778 7.80719 17.5016 7.58333 17.7778 7.58333H18.3056C18.5817 7.58333 18.8056 7.35948 18.8056 7.08333V6.55556C18.8056 6.27941 19.0294 6.05556 19.3056 6.05556H20.3333H21.3611C21.6373 6.05556 21.8611 6.27941 21.8611 6.55556V7.08333C21.8611 7.35948 22.085 7.58333 22.3611 7.58333H22.8889ZM8.11111 24.3889V25.9167V26.9444C8.11111 27.2206 8.33497 27.4444 8.61111 27.4444H9.63889H11.1667H12.6944H13.7222C13.9984 27.4444 14.2222 27.2206 14.2222 26.9444V25.9167V24.3889V22.8611V21.3333V20.3056C14.2222 20.0294 13.9984 19.8056 13.7222 19.8056H12.6944H11.1667H9.63889H8.61111C8.33497 19.8056 8.11111 20.0294 8.11111 20.3056V21.3333V22.8611V24.3889ZM5.05556 16.25C5.05556 16.5261 5.27941 16.75 5.55556 16.75H6.58333H8.11111H9.63889H11.1667H12.6944H13.7222C13.9984 16.75 14.2222 16.5261 14.2222 16.25V15.2222V14.1944C14.2222 13.9183 13.9984 13.6944 13.7222 13.6944H12.6944H11.1667H9.63889H8.11111H6.58333H5.55556C5.27941 13.6944 5.05556 13.9183 5.05556 14.1944V15.2222V16.25ZM17.2778 22.8611V21.3333V20.3056C17.2778 20.0294 17.5016 19.8056 17.7778 19.8056H18.8056H20.3333H21.8611H22.8889C23.165 19.8056 23.3889 20.0294 23.3889 20.3056V21.3333V22.8611V24.3889V25.9167V26.9444C23.3889 27.2206 23.165 27.4444 22.8889 27.4444H21.8611H20.3333H18.8056H17.7778C17.5016 27.4444 17.2778 27.2206 17.2778 26.9444V25.9167V24.3889V22.8611ZM18.8056 16.75H17.7778C17.5016 16.75 17.2778 16.5261 17.2778 16.25V15.2222V14.1944C17.2778 13.9183 17.5016 13.6944 17.7778 13.6944H18.8056H20.3333H21.8611H23.3889H24.9167H25.9444C26.2206 13.6944 26.4444 13.9183 26.4444 14.1944V15.2222V16.25C26.4444 16.5261 26.2206 16.75 25.9444 16.75H24.9167H23.3889H21.8611H20.3333H18.8056Z" fill="#52525B"/>
</g>
</svg>
