<svg width="32" height="32" viewBox="0 0 32 32" fill="none" xmlns="http://www.w3.org/2000/svg">
<g id="Icons">
<path id="Union" fill-rule="evenodd" clip-rule="evenodd" d="M3.5 2H2.5C2.22386 2 2 2.22386 2 2.5V3.5V5V6.5V8V9.5V11V12.5V13.5C2 13.7761 2.22386 14 2.5 14H3.5H5H6.5H8H9.5H11H12.5H13.5C13.7761 14 14 13.7761 14 13.5V12.5V11V9.5V8V6.5V5V3.5V2.5C14 2.22386 13.7761 2 13.5 2H12.5H11H9.5H8H6.5H5H3.5ZM5.5 5C5.22386 5 5 5.22386 5 5.5V6.5V8V9.5V10.5C5 10.7761 5.22386 11 5.5 11H6.5H8H9.5H10.5C10.7761 11 11 10.7761 11 10.5V9.5V8V6.5V5.5C11 5.22386 10.7761 5 10.5 5H9.5H8H6.5H5.5ZM17 2.5C17 2.22386 17.2239 2 17.5 2H18.5H20H21.5H23H24.5H26H27.5H28.5C28.7761 2 29 2.22386 29 2.5V3.5V5V6.5V8V9.5V11V12.5V13.5C29 13.7761 28.7761 14 28.5 14H27.5H26H24.5H23H21.5H20H18.5H17.5C17.2239 14 17 13.7761 17 13.5V12.5V11V9.5V8V6.5V5V3.5V2.5ZM20.5 5C20.2239 5 20 5.22386 20 5.5V6.5V8V9.5V10.5C20 10.7761 20.2239 11 20.5 11H21.5H23H24.5H25.5C25.7761 11 26 10.7761 26 10.5V9.5V8V6.5V5.5C26 5.22386 25.7761 5 25.5 5H24.5H23H21.5H20.5ZM17 17.5C17 17.2239 17.2239 17 17.5 17H18.5H20H21.5H23H24.5H26H27.5H28.5C28.7761 17 29 17.2239 29 17.5V18.5V20V21.5V23V24.5V26V27.5V28.5C29 28.7761 28.7761 29 28.5 29H27.5H26H24.5H23H21.5H20H18.5H17.5C17.2239 29 17 28.7761 17 28.5V27.5V26V24.5V23V21.5V20V18.5V17.5ZM24.5 20H23H21.5H20.5C20.2239 20 20 20.2239 20 20.5V21.5V23V24.5V25.5C20 25.7761 20.2239 26 20.5 26H21.5H23H24.5H25.5C25.7761 26 26 25.7761 26 25.5V24.5V23V21.5V20.5C26 20.2239 25.7761 20 25.5 20H24.5ZM11 17H12.5H13.5C13.7761 17 14 17.2239 14 17.5V18.5V20V21.5V23V24.5V26V27.5V28.5C14 28.7761 13.7761 29 13.5 29H12.5H11H9.5H8H6.5H5H3.5H2.5C2.22386 29 2 28.7761 2 28.5V27.5V26V24.5V23V21.5V20V18.5V17.5C2 17.2239 2.22386 17 2.5 17H3.5H5H6.5H8H9.5H11ZM11 23V21.5V20.5C11 20.2239 10.7761 20 10.5 20H9.5H8H6.5H5.5C5.22386 20 5 20.2239 5 20.5V21.5V23V24.5V25.5C5 25.7761 5.22386 26 5.5 26H6.5H8H9.5H10.5C10.7761 26 11 25.7761 11 25.5V24.5V23Z" fill="#52525B"/>
</g>
</svg>
